<svg width="20" height="20" viewBox="0 0 20 20" fill="none" xmlns="http://www.w3.org/2000/svg">
<path d="M9.58329 6.66666H16.83C17.3506 6.66666 17.611 6.66666 17.8015 6.7507C18.6446 7.12241 18.2677 8.05896 18.1259 8.732C18.1004 8.85291 18.0175 8.95583 17.9013 9.011C17.4194 9.23966 17.0818 9.67341 16.9932 10.1778L16.4994 12.9898C16.2821 14.2271 16.2079 15.9952 15.1236 16.8668C14.3281 17.5 13.182 17.5 10.8895 17.5H9.11038C6.81798 17.5 5.67179 17.5 4.87629 16.8668C3.79206 15.9952 3.71778 14.2271 3.50051 12.9898L3.00669 10.1778C2.9181 9.67341 2.58057 9.23966 2.09864 9.011C1.98243 8.95583 1.89956 8.85291 1.87408 8.732C1.73224 8.05896 1.35529 7.12241 2.19839 6.7507C2.38899 6.66666 2.64931 6.66666 3.16994 6.66666H6.24996" stroke="#141414" stroke-width="1.5" stroke-linecap="round"/>
<path d="M11.6667 10H8.33337" stroke="#141414" stroke-width="1.5" stroke-linecap="round" stroke-linejoin="round"/>
<path d="M5.41663 9.16667L8.33329 2.5M12.5 2.5L14.5833 6.66667" stroke="#141414" stroke-width="1.5" stroke-linecap="round"/>
</svg>
