<svg width="1200" height="227" viewBox="0 0 1200 227" fill="none" xmlns="http://www.w3.org/2000/svg">
<rect x="0.4" y="0.429297" width="1199.2" height="225.2" rx="7.6" stroke="#B8B8B8" stroke-width="0.8" stroke-dasharray="6 6"/>
<path d="M108 66.0293C108 89.2253 89.196 108.029 66 108.029C42.804 108.029 24 89.2253 24 66.0293C24 42.8333 42.804 24.0293 66 24.0293C89.196 24.0293 108 42.8333 108 66.0293ZM28.2 66.0293C28.2 86.9057 45.1236 103.829 66 103.829C86.8764 103.829 103.8 86.9057 103.8 66.0293C103.8 45.1529 86.8764 28.2293 66 28.2293C45.1236 28.2293 28.2 45.1529 28.2 66.0293Z" fill="#E4E9EE"/>
<path d="M108 66.0293C108 75.7462 104.631 85.1625 98.4664 92.6738C92.3021 100.185 83.724 105.327 74.1938 107.222C64.6636 109.118 54.7709 107.651 46.2013 103.07C37.6318 98.4895 30.9156 91.0793 27.1971 82.102C23.4786 73.1247 22.9878 63.1359 25.8085 53.8373C28.6292 44.5388 34.5867 36.506 42.666 31.1076C50.7454 25.7091 60.4466 23.2791 70.1167 24.2315C79.7868 25.184 88.8276 29.4599 95.6985 36.3308L92.7286 39.3007C86.5448 33.1168 78.4082 29.2685 69.705 28.4113C61.0019 27.5541 52.2708 29.7412 44.9994 34.5997C37.7281 39.4583 32.3663 46.6879 29.8277 55.0565C27.289 63.4252 27.7307 72.4152 31.0774 80.4947C34.424 88.5743 40.4686 95.2434 48.1812 99.3659C55.8938 103.488 64.7972 104.809 73.3744 103.103C81.9516 101.397 89.6719 96.7695 95.2198 90.0094C100.768 83.2492 103.8 74.7745 103.8 66.0293H108Z" fill="#FFA439"/>
<path d="M60.76 71.9492H57.76V69.4092H50.2V67.3092L57.28 58.5492H60.76V66.7092H62.68V69.4092H60.76V71.9492ZM53.98 66.7092H57.76V62.1892H57.58L53.98 66.5092V66.7092ZM67.4469 71.9492H63.6869V68.4092H67.4469V71.9492ZM74.645 72.1492C71.025 72.1492 69.225 70.5892 69.225 68.1092V67.9492H72.205V68.1092C72.205 69.0892 73.005 69.4092 74.785 69.4092C76.685 69.4092 77.345 68.9092 77.345 67.5492C77.345 66.1492 76.625 65.6692 74.745 65.6692C73.405 65.6692 72.425 66.0892 71.985 66.3492L69.325 65.9892L69.725 58.5492H79.565V61.2492H72.385L72.165 64.1692H72.245C72.765 63.6892 73.925 63.1292 75.745 63.1292C78.705 63.1292 80.285 64.7892 80.285 67.4492C80.285 70.1892 78.705 72.1492 74.645 72.1492Z" fill="#0B0F0E"/>
<path d="M135.442 41.9544L136.908 44.8877C137.108 45.296 137.642 45.6877 138.092 45.7627L140.75 46.2044C142.45 46.4877 142.85 47.721 141.625 48.9377L139.558 51.0044C139.208 51.3544 139.017 52.0294 139.125 52.5127L139.717 55.071C140.183 57.096 139.108 57.8794 137.317 56.821L134.825 55.346C134.375 55.0794 133.633 55.0794 133.175 55.346L130.683 56.821C128.9 57.8794 127.817 57.0877 128.283 55.071L128.875 52.5127C128.983 52.0294 128.792 51.3544 128.442 51.0044L126.375 48.9377C125.158 47.721 125.55 46.4877 127.25 46.2044L129.908 45.7627C130.35 45.6877 130.883 45.296 131.083 44.8877L132.55 41.9544C133.35 40.3627 134.65 40.3627 135.442 41.9544Z" fill="#FFA439"/>
<path d="M159.442 41.9544L160.908 44.8877C161.108 45.296 161.642 45.6877 162.092 45.7627L164.75 46.2044C166.45 46.4877 166.85 47.721 165.625 48.9377L163.558 51.0044C163.208 51.3544 163.017 52.0294 163.125 52.5127L163.717 55.071C164.183 57.096 163.108 57.8794 161.317 56.821L158.825 55.346C158.375 55.0794 157.633 55.0794 157.175 55.346L154.683 56.821C152.9 57.8794 151.817 57.0877 152.283 55.071L152.875 52.5127C152.983 52.0294 152.792 51.3544 152.442 51.0044L150.375 48.9377C149.158 47.721 149.55 46.4877 151.25 46.2044L153.908 45.7627C154.35 45.6877 154.883 45.296 155.083 44.8877L156.55 41.9544C157.35 40.3627 158.65 40.3627 159.442 41.9544Z" fill="#FFA439"/>
<path d="M183.442 41.9544L184.908 44.8877C185.108 45.296 185.642 45.6877 186.092 45.7627L188.75 46.2044C190.45 46.4877 190.85 47.721 189.625 48.9377L187.558 51.0044C187.208 51.3544 187.017 52.0294 187.125 52.5127L187.717 55.071C188.183 57.096 187.108 57.8794 185.317 56.821L182.825 55.346C182.375 55.0794 181.633 55.0794 181.175 55.346L178.683 56.821C176.9 57.8794 175.817 57.0877 176.283 55.071L176.875 52.5127C176.983 52.0294 176.792 51.3544 176.442 51.0044L174.375 48.9377C173.158 47.721 173.55 46.4877 175.25 46.2044L177.908 45.7627C178.35 45.6877 178.883 45.296 179.083 44.8877L180.55 41.9544C181.35 40.3627 182.65 40.3627 183.442 41.9544Z" fill="#FFA439"/>
<path d="M207.442 41.9544L208.908 44.8877C209.108 45.296 209.642 45.6877 210.092 45.7627L212.75 46.2044C214.45 46.4877 214.85 47.721 213.625 48.9377L211.558 51.0044C211.208 51.3544 211.017 52.0294 211.125 52.5127L211.717 55.071C212.183 57.096 211.108 57.8794 209.317 56.821L206.825 55.346C206.375 55.0794 205.633 55.0794 205.175 55.346L202.683 56.821C200.9 57.8794 199.817 57.0877 200.283 55.071L200.875 52.5127C200.983 52.0294 200.792 51.3544 200.442 51.0044L198.375 48.9377C197.158 47.721 197.55 46.4877 199.25 46.2044L201.908 45.7627C202.35 45.6877 202.883 45.296 203.083 44.8877L204.55 41.9544C205.35 40.3627 206.65 40.3627 207.442 41.9544Z" fill="#FFA439"/>
<path d="M231.442 41.9544L232.908 44.8877C233.108 45.296 233.642 45.6877 234.092 45.7627L236.75 46.2044C238.45 46.4877 238.85 47.721 237.625 48.9377L235.558 51.0044C235.208 51.3544 235.017 52.0294 235.125 52.5127L235.717 55.071C236.183 57.096 235.108 57.8794 233.317 56.821L230.825 55.346C230.375 55.0794 229.633 55.0794 229.175 55.346L226.683 56.821C224.9 57.8794 223.817 57.0877 224.283 55.071L224.875 52.5127C224.983 52.0294 224.792 51.3544 224.442 51.0044L222.375 48.9377C221.158 47.721 221.55 46.4877 223.25 46.2044L225.908 45.7627C226.35 45.6877 226.883 45.296 227.083 44.8877L228.55 41.9544C229.35 40.3627 230.65 40.3627 231.442 41.9544Z" fill="#FFA439"/>
<path d="M126.432 85.0293H125.296V78.1173H124.128V77.1253H125.296V76.8213C125.296 75.1893 126.208 74.3093 127.952 74.3093H128.656V75.2533H127.744C126.832 75.2533 126.416 75.6373 126.416 76.4373V77.1253H128.656V78.1173H126.432V85.0293ZM130.704 85.0293H129.552V77.0293H130.592V78.3573H130.672C130.928 77.6213 131.696 76.9653 132.864 76.9653C134.496 76.9653 135.12 78.1333 135.12 79.4933V79.9413H133.968V79.6693C133.968 78.4373 133.584 77.9573 132.448 77.9573C131.216 77.9573 130.704 78.5173 130.704 79.7973V85.0293ZM139.807 85.1893C137.487 85.1893 135.967 83.4773 135.967 81.0773C135.967 78.6773 137.487 76.9653 139.807 76.9653C142.111 76.9653 143.583 78.6773 143.583 81.0773C143.583 83.4773 142.111 85.1893 139.807 85.1893ZM139.807 84.1653C141.711 84.1653 142.463 83.0453 142.463 81.0773C142.463 79.1093 141.711 78.0053 139.807 78.0053C137.871 78.0053 137.103 79.1093 137.103 81.0773C137.103 83.0453 137.871 84.1653 139.807 84.1653ZM146.126 85.0293H144.974V77.1253H146.014V78.7573H146.062C146.366 77.9253 147.198 76.9653 148.83 76.9653C150.27 76.9653 151.134 77.6533 151.486 78.7733H151.534C151.854 77.9253 152.67 76.9653 154.302 76.9653C156.334 76.9653 157.262 78.2773 157.262 80.1653V85.0293H156.126V80.4373C156.126 78.7253 155.55 77.9733 153.95 77.9733C152.446 77.9733 151.694 78.7093 151.694 80.4693V85.0293H150.558V80.4373C150.558 78.7253 149.998 77.9733 148.398 77.9733C146.894 77.9733 146.126 78.7093 146.126 80.4693V85.0293ZM164.742 85.0293H163.59V76.5013H161.494V75.6373H161.862C162.87 75.6373 163.414 75.2693 163.798 74.3093H164.742V85.0293ZM166.925 86.5013H166.573V85.7493H166.893C167.117 85.7493 167.229 85.7013 167.229 85.4293V85.0293H166.605V82.8053H168.013V85.4133C168.013 86.1653 167.597 86.5013 166.925 86.5013ZM176.916 85.0293H169.428V84.3093C169.428 82.3093 170.676 81.3333 172.164 80.5013L173.828 79.5733C175.108 78.8693 175.684 78.3093 175.684 77.2213C175.684 76.0533 175.204 75.2053 173.204 75.2053C170.98 75.2053 170.42 76.0533 170.42 77.7653V77.9573H169.268V77.7013C169.268 75.7653 170.468 74.1493 173.268 74.1493C175.748 74.1493 176.836 75.5093 176.836 77.1413C176.836 78.8213 175.7 79.7173 174.324 80.4853L172.708 81.3813C171.476 82.0693 170.612 82.7413 170.628 83.9893H176.916V85.0293ZM182.254 85.1893C179.614 85.1893 178.158 83.9573 178.158 81.9893V81.8933H179.31V81.9893C179.31 83.5733 180.302 84.1333 182.286 84.1333C184.366 84.1333 185.166 83.5093 185.166 81.6533C185.166 79.9253 184.302 79.2373 182.334 79.2373C180.91 79.2373 180.126 79.6053 179.422 80.0053L178.414 79.7973L178.846 74.3093H185.726V75.3493H179.854L179.502 79.1253H179.534C180.238 78.6133 181.294 78.2453 182.622 78.2453C184.846 78.2453 186.302 79.4453 186.302 81.6373C186.302 83.8613 184.942 85.1893 182.254 85.1893ZM189.064 85.0293H187.912V74.3093H189.064V80.4373H191.048L193.448 77.1253H194.792L191.976 80.8693L194.728 85.0293H193.384L191.048 81.4773H189.064V85.0293ZM199.986 85.0293H198.834V77.0293H199.874V78.3573H199.954C200.21 77.6213 200.978 76.9653 202.146 76.9653C203.778 76.9653 204.402 78.1333 204.402 79.4933V79.9413H203.25V79.6693C203.25 78.4373 202.866 77.9573 201.73 77.9573C200.498 77.9573 199.986 78.5173 199.986 79.7973V85.0293ZM208.944 85.1893C206.512 85.1893 205.248 83.4773 205.248 81.0773C205.248 78.6773 206.672 76.9653 208.928 76.9653C210.832 76.9653 212.4 78.1173 212.4 80.4533C212.4 80.8213 212.368 81.1733 212.32 81.3973H206.336C206.384 83.1413 207.072 84.1653 208.96 84.1653C210.56 84.1653 211.2 83.4453 211.2 82.4853V82.3893H212.336V82.5013C212.336 84.0213 210.96 85.1893 208.944 85.1893ZM208.896 77.9573C207.136 77.9573 206.432 78.9653 206.336 80.5653H211.312C211.376 78.6933 210.448 77.9573 208.896 77.9573ZM217.44 85.0293H216.016L212.784 77.1253H214.032L216.704 83.9093H216.784L219.44 77.1253H220.672L217.44 85.0293ZM222.625 76.0693H221.489V74.3093H222.625V76.0693ZM222.625 85.0293H221.489V77.0293H222.625V85.0293ZM227.663 85.1893C225.231 85.1893 223.967 83.4773 223.967 81.0773C223.967 78.6773 225.391 76.9653 227.647 76.9653C229.551 76.9653 231.119 78.1173 231.119 80.4533C231.119 80.8213 231.087 81.1733 231.039 81.3973H225.055C225.103 83.1413 225.791 84.1653 227.679 84.1653C229.279 84.1653 229.919 83.4453 229.919 82.4853V82.3893H231.055V82.5013C231.055 84.0213 229.679 85.1893 227.663 85.1893ZM227.615 77.9573C225.855 77.9573 225.151 78.9653 225.055 80.5653H230.031C230.095 78.6933 229.167 77.9573 227.615 77.9573ZM235.119 85.0293H233.615L231.583 77.1253H232.799L234.047 82.2773L234.367 83.9893H234.463L234.991 82.2773L236.799 77.1253H238.319L240.159 82.2773L240.655 83.9893H240.751L241.071 82.2773L242.319 77.1253H243.503L241.471 85.0293H239.967L238.191 80.0373L237.599 78.1653H237.503L236.911 80.0373L235.119 85.0293ZM247.674 85.1893C245.514 85.1893 244.33 84.2773 244.33 82.4373V82.4053H245.45V82.5973C245.45 83.6853 245.898 84.2133 247.69 84.2133C249.162 84.2133 249.546 83.7973 249.546 82.9973C249.546 82.1973 249.05 81.9093 247.85 81.6853L246.538 81.4613C245.258 81.2213 244.33 80.6293 244.33 79.2373C244.33 77.8773 245.482 76.9653 247.354 76.9653C249.162 76.9653 250.49 77.8933 250.49 79.6693V79.7493H249.386V79.6213C249.386 78.6773 249.018 77.9573 247.322 77.9573C245.882 77.9573 245.434 78.4213 245.434 79.2213C245.434 80.0213 245.834 80.2933 247.018 80.5173L248.362 80.7733C249.738 81.0293 250.65 81.6373 250.65 82.9493C250.65 84.3573 249.498 85.1893 247.674 85.1893Z" fill="#525252"/>
<path d="M377.088 42.1893C380.048 42.1893 381.376 40.7493 381.376 38.5253C381.376 36.3653 379.984 35.0853 377.696 35.0853C376.288 35.0853 375.28 35.5173 374.72 35.9813H374.672L374.928 32.8613H380.8V31.3093H373.408L373.04 37.0053L374.56 37.2453C375.088 36.9413 375.856 36.5733 377.168 36.5733C378.976 36.5733 379.664 37.1333 379.664 38.5733C379.664 40.0773 379.04 40.6053 377.152 40.6053C375.376 40.6053 374.576 40.1893 374.576 38.9893V38.8933H372.864V38.9893C372.864 40.9573 374.304 42.1893 377.088 42.1893ZM385.016 42.0293V39.5493H382.824V42.0293H385.016ZM391.019 42.1893C393.899 42.1893 395.659 40.0613 395.659 36.6693C395.659 33.2773 393.899 31.1493 391.019 31.1493C388.139 31.1493 386.395 33.2773 386.395 36.6693C386.395 40.0613 388.139 42.1893 391.019 42.1893ZM391.019 40.5253C389.115 40.5253 388.235 39.5013 388.235 36.6693C388.235 33.8373 389.115 32.8133 391.019 32.8133C392.923 32.8133 393.819 33.8373 393.819 36.6693C393.819 39.5013 392.923 40.5253 391.019 40.5253Z" fill="#0B0F0E"/>
<path d="M412.442 29.9544L413.908 32.8877C414.108 33.296 414.642 33.6877 415.092 33.7627L417.75 34.2044C419.45 34.4877 419.85 35.721 418.625 36.9377L416.558 39.0044C416.208 39.3544 416.017 40.0294 416.125 40.5127L416.717 43.071C417.183 45.096 416.108 45.8794 414.317 44.821L411.825 43.346C411.375 43.0794 410.633 43.0794 410.175 43.346L407.683 44.821C405.9 45.8794 404.817 45.0877 405.283 43.071L405.875 40.5127C405.983 40.0294 405.792 39.3544 405.442 39.0044L403.375 36.9377C402.158 35.721 402.55 34.4877 404.25 34.2044L406.908 33.7627C407.35 33.6877 407.883 33.296 408.083 32.8877L409.55 29.9544C410.35 28.3627 411.65 28.3627 412.442 29.9544Z" fill="#FFA439"/>
<rect x="444.5" y="33.0293" width="669" height="8" rx="4" fill="#E4E9EE"/>
<rect x="444.5" y="33.0293" width="562" height="8" rx="4" fill="#292929"/>
<path d="M1145.85 42.0293V40.4773H1139.75C1139.75 39.5973 1140.58 39.0853 1141.67 38.5253L1143.24 37.7253C1144.62 37.0213 1145.82 36.0773 1145.82 34.3173C1145.82 32.5413 1144.71 31.1493 1142.07 31.1493C1139.11 31.1493 1137.86 32.8133 1137.86 34.8133V35.0693H1139.59V34.8453C1139.59 33.3733 1139.99 32.7333 1141.94 32.7333C1143.72 32.7333 1144.09 33.3893 1144.09 34.3813C1144.09 35.2933 1143.62 35.7733 1142.47 36.3813L1140.82 37.2293C1139.32 37.9973 1137.94 38.9253 1137.94 40.9573V42.0293H1145.85ZM1151.54 42.1893C1154.29 42.1893 1155.94 41.1493 1155.94 39.1013C1155.94 37.5813 1154.96 36.7493 1153.79 36.4133V36.3493C1154.91 36.1573 1155.6 35.2453 1155.6 34.0133C1155.6 32.3493 1154.24 31.1493 1151.54 31.1493C1148.83 31.1493 1147.47 32.3493 1147.47 34.0133C1147.47 35.2453 1148.16 36.1573 1149.3 36.3493V36.4133C1148.11 36.7493 1147.15 37.5813 1147.15 39.1013C1147.15 41.1493 1148.79 42.1893 1151.54 42.1893ZM1151.54 35.8693C1149.79 35.8693 1149.2 35.3573 1149.2 34.2853C1149.2 33.2773 1149.75 32.7333 1151.54 32.7333C1153.35 32.7333 1153.87 33.2773 1153.87 34.2853C1153.87 35.3573 1153.3 35.8693 1151.54 35.8693ZM1151.54 40.6053C1149.44 40.6053 1148.9 40.0133 1148.9 38.8293C1148.9 37.6613 1149.46 37.0533 1151.54 37.0533C1153.62 37.0533 1154.19 37.6613 1154.19 38.8293C1154.19 40.0133 1153.65 40.6053 1151.54 40.6053ZM1165.3 42.0293V40.4773H1159.21C1159.21 39.5973 1160.04 39.0853 1161.13 38.5253L1162.69 37.7253C1164.07 37.0213 1165.27 36.0773 1165.27 34.3173C1165.27 32.5413 1164.17 31.1493 1161.53 31.1493C1158.57 31.1493 1157.32 32.8133 1157.32 34.8133V35.0693H1159.05V34.8453C1159.05 33.3733 1159.45 32.7333 1161.4 32.7333C1163.17 32.7333 1163.54 33.3893 1163.54 34.3813C1163.54 35.2933 1163.08 35.7733 1161.93 36.3813L1160.28 37.2293C1158.77 37.9973 1157.4 38.9253 1157.4 40.9573V42.0293H1165.3ZM1170.96 42.1893C1173.44 42.1893 1175.1 41.1813 1175.1 39.1173C1175.1 37.5813 1174.21 36.6213 1172.73 36.4133V36.3493C1174.09 36.1573 1174.72 35.2453 1174.72 34.0133C1174.72 32.1413 1173.28 31.1493 1170.86 31.1493C1168.17 31.1493 1166.73 32.5413 1166.73 34.5893V34.7333H1168.43V34.6053C1168.43 33.2613 1168.99 32.7333 1170.85 32.7333C1172.35 32.7333 1172.99 33.1653 1172.99 34.2853C1172.99 35.4053 1172.45 35.7573 1171.04 35.7573H1169.13V37.1973H1171.28C1172.77 37.1973 1173.36 37.5973 1173.36 38.9413C1173.36 40.1893 1172.69 40.6053 1170.99 40.6053C1168.88 40.6053 1168.43 40.0773 1168.43 38.7333V38.4933H1166.73V38.7493C1166.73 40.7973 1167.9 42.1893 1170.96 42.1893Z" fill="#0B0F0E"/>
<path d="M380.112 80.0293V77.8053H381.776V76.2533H380.112V69.3093H378.112L372.208 76.6053V77.8053H378.4V80.0293H380.112ZM374.416 76.2533V76.1253L378.272 71.4373H378.4V76.2533H374.416ZM384.782 80.0293V77.5493H382.59V80.0293H384.782ZM390.785 80.1893C393.665 80.1893 395.425 78.0613 395.425 74.6693C395.425 71.2773 393.665 69.1493 390.785 69.1493C387.905 69.1493 386.161 71.2773 386.161 74.6693C386.161 78.0613 387.905 80.1893 390.785 80.1893ZM390.785 78.5253C388.881 78.5253 388.001 77.5013 388.001 74.6693C388.001 71.8373 388.881 70.8133 390.785 70.8133C392.689 70.8133 393.585 71.8373 393.585 74.6693C393.585 77.5013 392.689 78.5253 390.785 78.5253Z" fill="#0B0F0E"/>
<path d="M412.442 67.9544L413.908 70.8877C414.108 71.296 414.642 71.6877 415.092 71.7627L417.75 72.2044C419.45 72.4877 419.85 73.721 418.625 74.9377L416.558 77.0044C416.208 77.3544 416.017 78.0294 416.125 78.5127L416.717 81.071C417.183 83.096 416.108 83.8794 414.317 82.821L411.825 81.346C411.375 81.0794 410.633 81.0794 410.175 81.346L407.683 82.821C405.9 83.8794 404.817 83.0877 405.283 81.071L405.875 78.5127C405.983 78.0294 405.792 77.3544 405.442 77.0044L403.375 74.9377C402.158 73.721 402.55 72.4877 404.25 72.2044L406.908 71.7627C407.35 71.6877 407.883 71.296 408.083 70.8877L409.55 67.9544C410.35 66.3627 411.65 66.3627 412.442 67.9544Z" fill="#FFA439"/>
<rect x="444.5" y="71.0293" width="669" height="8" rx="4" fill="#E4E9EE"/>
<rect x="444.5" y="71.0293" width="318" height="8" rx="4" fill="#292929"/>
<path d="M1141.86 80.1893C1144.34 80.1893 1146.01 79.1813 1146.01 77.1173C1146.01 75.5813 1145.11 74.6213 1143.64 74.4133V74.3493C1145 74.1573 1145.62 73.2453 1145.62 72.0133C1145.62 70.1413 1144.18 69.1493 1141.77 69.1493C1139.08 69.1493 1137.64 70.5413 1137.64 72.5893V72.7333H1139.34V72.6053C1139.34 71.2613 1139.9 70.7333 1141.75 70.7333C1143.26 70.7333 1143.9 71.1653 1143.9 72.2853C1143.9 73.4053 1143.35 73.7573 1141.94 73.7573H1140.04V75.1973H1142.18C1143.67 75.1973 1144.26 75.5973 1144.26 76.9413C1144.26 78.1893 1143.59 78.6053 1141.9 78.6053C1139.78 78.6053 1139.34 78.0773 1139.34 76.7333V76.4933H1137.64V76.7493C1137.64 78.7973 1138.81 80.1893 1141.86 80.1893ZM1151.62 80.1893C1154.37 80.1893 1156.02 79.1493 1156.02 77.1013C1156.02 75.5813 1155.04 74.7493 1153.87 74.4133V74.3493C1154.99 74.1573 1155.68 73.2453 1155.68 72.0133C1155.68 70.3493 1154.32 69.1493 1151.62 69.1493C1148.91 69.1493 1147.55 70.3493 1147.55 72.0133C1147.55 73.2453 1148.24 74.1573 1149.38 74.3493V74.4133C1148.19 74.7493 1147.23 75.5813 1147.23 77.1013C1147.23 79.1493 1148.86 80.1893 1151.62 80.1893ZM1151.62 73.8693C1149.87 73.8693 1149.28 73.3573 1149.28 72.2853C1149.28 71.2773 1149.82 70.7333 1151.62 70.7333C1153.42 70.7333 1153.95 71.2773 1153.95 72.2853C1153.95 73.3573 1153.38 73.8693 1151.62 73.8693ZM1151.62 78.6053C1149.52 78.6053 1148.98 78.0133 1148.98 76.8293C1148.98 75.6613 1149.54 75.0533 1151.62 75.0533C1153.7 75.0533 1154.27 75.6613 1154.27 76.8293C1154.27 78.0133 1153.73 78.6053 1151.62 78.6053Z" fill="#0B0F0E"/>
<path d="M376.864 118.189C379.344 118.189 381.008 117.181 381.008 115.117C381.008 113.581 380.112 112.621 378.64 112.413V112.349C380 112.157 380.624 111.245 380.624 110.013C380.624 108.141 379.184 107.149 376.768 107.149C374.08 107.149 372.64 108.541 372.64 110.589V110.733H374.336V110.605C374.336 109.261 374.896 108.733 376.752 108.733C378.256 108.733 378.896 109.165 378.896 110.285C378.896 111.405 378.352 111.757 376.944 111.757H375.04V113.197H377.184C378.672 113.197 379.264 113.597 379.264 114.941C379.264 116.189 378.592 116.605 376.896 116.605C374.784 116.605 374.336 116.077 374.336 114.733V114.493H372.64V114.749C372.64 116.797 373.808 118.189 376.864 118.189ZM384.329 118.029V115.549H382.137V118.029H384.329ZM390.332 118.189C393.212 118.189 394.972 116.061 394.972 112.669C394.972 109.277 393.212 107.149 390.332 107.149C387.452 107.149 385.708 109.277 385.708 112.669C385.708 116.061 387.452 118.189 390.332 118.189ZM390.332 116.525C388.428 116.525 387.548 115.501 387.548 112.669C387.548 109.837 388.428 108.813 390.332 108.813C392.236 108.813 393.132 109.837 393.132 112.669C393.132 115.501 392.236 116.525 390.332 116.525Z" fill="#0B0F0E"/>
<path d="M411.442 105.954L412.908 108.888C413.108 109.296 413.642 109.688 414.092 109.763L416.75 110.204C418.45 110.488 418.85 111.721 417.625 112.938L415.558 115.004C415.208 115.354 415.017 116.029 415.125 116.513L415.717 119.071C416.183 121.096 415.108 121.879 413.317 120.821L410.825 119.346C410.375 119.079 409.633 119.079 409.175 119.346L406.683 120.821C404.9 121.879 403.817 121.088 404.283 119.071L404.875 116.513C404.983 116.029 404.792 115.354 404.442 115.004L402.375 112.938C401.158 111.721 401.55 110.488 403.25 110.204L405.908 109.763C406.35 109.688 406.883 109.296 407.083 108.888L408.55 105.954C409.35 104.363 410.65 104.363 411.442 105.954Z" fill="#FFA439"/>
<rect x="444" y="109.029" width="669" height="8" rx="4" fill="#E4E9EE"/>
<rect x="444" y="109.029" width="100" height="8" rx="4" fill="#292929"/>
<path d="M1145.11 118.029V115.805H1146.78V114.253H1145.11V107.309H1143.11L1137.21 114.605V115.805H1143.4V118.029H1145.11ZM1139.42 114.253V114.125L1143.27 109.437H1143.4V114.253H1139.42Z" fill="#0B0F0E"/>
<path d="M380.848 156.029V154.477H374.752C374.752 153.597 375.584 153.085 376.672 152.525L378.24 151.725C379.616 151.021 380.816 150.077 380.816 148.317C380.816 146.541 379.712 145.149 377.072 145.149C374.112 145.149 372.864 146.813 372.864 148.813V149.069H374.592V148.845C374.592 147.373 374.992 146.733 376.944 146.733C378.72 146.733 379.088 147.389 379.088 148.381C379.088 149.293 378.624 149.773 377.472 150.381L375.824 151.229C374.32 151.997 372.944 152.925 372.944 154.957V156.029H380.848ZM384.422 156.029V153.549H382.23V156.029H384.422ZM390.426 156.189C393.306 156.189 395.066 154.061 395.066 150.669C395.066 147.277 393.306 145.149 390.426 145.149C387.546 145.149 385.802 147.277 385.802 150.669C385.802 154.061 387.546 156.189 390.426 156.189ZM390.426 154.525C388.522 154.525 387.642 153.501 387.642 150.669C387.642 147.837 388.522 146.813 390.426 146.813C392.33 146.813 393.226 147.837 393.226 150.669C393.226 153.501 392.33 154.525 390.426 154.525Z" fill="#0B0F0E"/>
<path d="M411.442 143.954L412.908 146.888C413.108 147.296 413.642 147.688 414.092 147.763L416.75 148.204C418.45 148.488 418.85 149.721 417.625 150.938L415.558 153.004C415.208 153.354 415.017 154.029 415.125 154.513L415.717 157.071C416.183 159.096 415.108 159.879 413.317 158.821L410.825 157.346C410.375 157.079 409.633 157.079 409.175 157.346L406.683 158.821C404.9 159.879 403.817 159.088 404.283 157.071L404.875 154.513C404.983 154.029 404.792 153.354 404.442 153.004L402.375 150.938C401.158 149.721 401.55 148.488 403.25 148.204L405.908 147.763C406.35 147.688 406.883 147.296 407.083 146.888L408.55 143.954C409.35 142.363 410.65 142.363 411.442 143.954Z" fill="#FFA439"/>
<rect x="444" y="147.029" width="669" height="8" rx="4" fill="#E4E9EE"/>
<path d="M1142.49 156.189C1145.37 156.189 1147.13 154.061 1147.13 150.669C1147.13 147.277 1145.37 145.149 1142.49 145.149C1139.61 145.149 1137.86 147.277 1137.86 150.669C1137.86 154.061 1139.61 156.189 1142.49 156.189ZM1142.49 154.525C1140.58 154.525 1139.7 153.501 1139.7 150.669C1139.7 147.837 1140.58 146.813 1142.49 146.813C1144.39 146.813 1145.29 147.837 1145.29 150.669C1145.29 153.501 1144.39 154.525 1142.49 154.525Z" fill="#0B0F0E"/>
<path d="M376.352 194.029V183.309H374.832C374.384 184.269 373.792 184.637 372.784 184.637H372.368V185.869H374.624V194.029H376.352ZM380.329 194.029V191.549H378.137V194.029H380.329ZM386.332 194.189C389.212 194.189 390.972 192.061 390.972 188.669C390.972 185.277 389.212 183.149 386.332 183.149C383.452 183.149 381.708 185.277 381.708 188.669C381.708 192.061 383.452 194.189 386.332 194.189ZM386.332 192.525C384.428 192.525 383.548 191.501 383.548 188.669C383.548 185.837 384.428 184.813 386.332 184.813C388.236 184.813 389.132 185.837 389.132 188.669C389.132 191.501 388.236 192.525 386.332 192.525Z" fill="#0B0F0E"/>
<path d="M407.442 181.954L408.908 184.888C409.108 185.296 409.642 185.688 410.092 185.763L412.75 186.204C414.45 186.488 414.85 187.721 413.625 188.938L411.558 191.004C411.208 191.354 411.017 192.029 411.125 192.513L411.717 195.071C412.183 197.096 411.108 197.879 409.317 196.821L406.825 195.346C406.375 195.079 405.633 195.079 405.175 195.346L402.683 196.821C400.9 197.879 399.817 197.088 400.283 195.071L400.875 192.513C400.983 192.029 400.792 191.354 400.442 191.004L398.375 188.938C397.158 187.721 397.55 186.488 399.25 186.204L401.908 185.763C402.35 185.688 402.883 185.296 403.083 184.888L404.55 181.954C405.35 180.363 406.65 180.363 407.442 181.954Z" fill="#FFA439"/>
<rect x="442" y="185.029" width="669" height="8" rx="4" fill="#E4E9EE"/>
<path d="M1142.49 194.189C1145.37 194.189 1147.13 192.061 1147.13 188.669C1147.13 185.277 1145.37 183.149 1142.49 183.149C1139.61 183.149 1137.86 185.277 1137.86 188.669C1137.86 192.061 1139.61 194.189 1142.49 194.189ZM1142.49 192.525C1140.58 192.525 1139.7 191.501 1139.7 188.669C1139.7 185.837 1140.58 184.813 1142.49 184.813C1144.39 184.813 1145.29 185.837 1145.29 188.669C1145.29 191.501 1144.39 192.525 1142.49 192.525Z" fill="#0B0F0E"/>
<rect y="63" width="24" height="1" fill="#D9D9D9"/>
<rect x="63" y="1" width="1" height="23" fill="#D9D9D9"/>
</svg>
