<svg width="20" height="19" viewBox="0 0 20 19" fill="#FFA439" xmlns="http://www.w3.org/2000/svg">
<path d="M9.04894 0.956166C9.3483 0.0348549 10.6517 0.0348537 10.9511 0.956164L12.4697 5.62993C12.6035 6.04195 12.9875 6.32091 13.4207 6.32091H18.335C19.3037 6.32091 19.7065 7.56052 18.9228 8.12993L14.947 11.0185C14.5966 11.2731 14.4499 11.7245 14.5838 12.1365L16.1024 16.8103C16.4017 17.7316 15.3472 18.4977 14.5635 17.9283L10.5878 15.0398C10.2373 14.7851 9.7627 14.7851 9.41221 15.0398L5.43648 17.9283C4.65276 18.4977 3.59828 17.7316 3.89763 16.8103L5.41623 12.1365C5.55011 11.7245 5.40345 11.2731 5.05296 11.0185L1.07722 8.12993C0.293507 7.56053 0.696283 6.32091 1.66501 6.32091H6.57929C7.01252 6.32091 7.39647 6.04195 7.53035 5.62993L9.04894 0.956166Z" fill="#FFA439"/>
</svg>
