<svg width="20" height="20" viewBox="0 0 20 20" fill="#0000" xmlns="http://www.w3.org/2000/svg">
<path d="M5.48131 12.9013C4.30234 13.6033 1.21114 15.0368 3.09389 16.8305C4.01359 17.7067 5.03791 18.3333 6.32573 18.3333H13.6743C14.9621 18.3333 15.9864 17.7067 16.9061 16.8305C18.7888 15.0368 15.6977 13.6033 14.5187 12.9013C11.754 11.2551 8.24599 11.2551 5.48131 12.9013Z" stroke="#141414" stroke-width="1.25" stroke-linecap="round" stroke-linejoin="round"/>
<path d="M13.75 5.41666C13.75 7.48773 12.0711 9.16666 10 9.16666C7.92893 9.16666 6.25 7.48773 6.25 5.41666C6.25 3.3456 7.92893 1.66666 10 1.66666C12.0711 1.66666 13.75 3.3456 13.75 5.41666Z" stroke="#141414" stroke-width="1.25"/>
</svg>
